<svg width="12" height="14" viewBox="0 0 12 14" fill="none" xmlns="http://www.w3.org/2000/svg">
<path d="M3.725 0.1875C3.575 0.28125 3.5 0.421875 3.5 0.625C3.5 0.828125 3.575 0.96875 3.725 1.0625C3.825 1.12187 3.8875 1.125 6 1.125C8.1125 1.125 8.175 1.12187 8.275 1.0625C8.425 0.96875 8.5 0.828125 8.5 0.625C8.5 0.421875 8.425 0.28125 8.275 0.1875C8.175 0.128125 8.1125 0.125 6 0.125C3.8875 0.125 3.825 0.128125 3.725 0.1875Z" fill="#BDBDBD"/>
<path d="M0.225 1.68828C0.075 1.78203 0 1.92266 0 2.12578C0 2.32891 0.075 2.46953 0.225 2.56328C0.3125 2.61641 0.384375 2.62578 0.665625 2.62578H1V7.38516C1 12.6914 0.984375 12.2883 1.225 12.782C1.46875 13.282 1.97812 13.6852 2.54688 13.8289C2.825 13.9008 9.175 13.9008 9.45312 13.8289C10.0219 13.6852 10.5312 13.282 10.775 12.782C11.0156 12.2883 11 12.6914 11 7.38516V2.62578H11.3375C11.6156 2.62578 11.6875 2.61641 11.775 2.56328C11.925 2.46953 12 2.32891 12 2.12578C12 1.92266 11.925 1.78203 11.775 1.68828C11.6719 1.62578 11.6031 1.62578 6 1.62578C0.396875 1.62578 0.328125 1.62578 0.225 1.68828ZM9.99375 7.31953L9.98438 12.0164L9.90938 12.1977C9.8125 12.4414 9.56563 12.6883 9.32188 12.7852L9.14062 12.8602H6H2.85938L2.67813 12.7852C2.43438 12.6883 2.1875 12.4414 2.09063 12.1977L2.01562 12.0164L2.00625 7.31953L1.99688 2.62578H6H10.0031L9.99375 7.31953Z" fill="#BDBDBD"/>
<path d="M3.975 4.9375C3.91875 4.97187 3.84688 5.04375 3.8125 5.1C3.75313 5.2 3.75 5.2625 3.75 7.875C3.75 10.4875 3.75313 10.55 3.8125 10.65C3.90625 10.8 4.04688 10.875 4.25 10.875C4.45312 10.875 4.59375 10.8 4.6875 10.65C4.74687 10.55 4.75 10.4875 4.75 7.875C4.75 5.2625 4.74687 5.2 4.6875 5.1C4.59375 4.95 4.45312 4.875 4.25 4.875C4.13438 4.875 4.04375 4.89375 3.975 4.9375Z" fill="#BDBDBD"/>
<path d="M7.475 4.9375C7.41875 4.97187 7.34688 5.04375 7.3125 5.1C7.25313 5.2 7.25 5.2625 7.25 7.875C7.25 10.4875 7.25313 10.55 7.3125 10.65C7.40625 10.8 7.54688 10.875 7.75 10.875C7.95312 10.875 8.09375 10.8 8.1875 10.65C8.24687 10.55 8.25 10.4875 8.25 7.875C8.25 5.2625 8.24687 5.2 8.1875 5.1C8.09375 4.95 7.95312 4.875 7.75 4.875C7.63438 4.875 7.54375 4.89375 7.475 4.9375Z" fill="#BDBDBD"/>
</svg>
